<svg class="h-8 me-4" viewBox="0 0 113.21 96.291" xmlns="http://www.w3.org/2000/svg" width="32px" height="32px">
    <g id="svgGroup" stroke-linecap="round" fill-rule="evenodd" font-size="9pt" stroke="#3375c7" stroke-width="0.2mm"
       fill="#3375c7" style="stroke:#3375c7;stroke-width:0.2mm;fill:#3375c7">
        <path
            d="M 35.487 94.285 A 11.226 11.226 0 0 0 39.001 95.869 A 15.07 15.07 0 0 0 40.291 96.134 Q 41.276 96.29 42.196 96.29 A 8.802 8.802 0 0 0 48.251 94.019 A 14.043 14.043 0 0 0 48.522 93.77 Q 51.957 90.547 53.401 84.869 A 68.416 68.416 0 0 0 53.771 83.374 Q 54.29 81.167 54.596 79.173 A 37.612 37.612 0 0 0 55.001 75.269 A 74.356 74.356 0 0 0 55.01 75.059 Q 55.102 73.018 55.074 71.108 A 54.638 54.638 0 0 0 54.901 67.419 Q 54.601 63.769 54.701 59.869 A 26.701 26.701 0 0 1 54.727 59.176 Q 54.915 55.547 56.101 51.169 A 46.639 46.639 0 0 1 57.388 46.975 A 57.282 57.282 0 0 1 60.101 40.669 Q 62.801 35.269 65.651 29.319 Q 68.501 23.369 70.001 16.869 A 31.11 31.11 0 0 0 70.555 14.262 Q 70.967 11.792 70.901 9.519 A 13.613 13.613 0 0 0 70.655 7.265 A 10.234 10.234 0 0 0 69.201 3.619 A 7.004 7.004 0 0 0 66.371 1.157 A 10.271 10.271 0 0 0 64.101 0.369 Q 58.801 -0.931 55.451 2.369 A 16.561 16.561 0 0 0 52.442 6.439 A 21.168 21.168 0 0 0 50.701 10.969 Q 49.001 17.569 48.351 24.269 Q 47.701 30.969 47.201 37.119 Q 46.701 43.269 45.401 48.369 A 51.552 51.552 0 0 1 45.052 49.689 Q 43.955 53.633 42.451 56.469 Q 40.701 59.769 38.801 62.769 A 70.437 70.437 0 0 0 37.324 65.212 A 87.204 87.204 0 0 0 35.051 69.419 A 30.61 30.61 0 0 0 34.208 71.231 Q 33.527 72.826 32.914 74.704 A 60.862 60.862 0 0 0 31.801 78.569 A 26.845 26.845 0 0 0 31.286 81.134 Q 30.943 83.44 31.093 85.507 A 14.85 14.85 0 0 0 32.001 89.719 A 9.485 9.485 0 0 0 35.487 94.285 Z M 77.787 94.285 A 11.226 11.226 0 0 0 81.301 95.869 A 15.07 15.07 0 0 0 82.591 96.134 Q 83.576 96.29 84.496 96.29 A 8.802 8.802 0 0 0 90.551 94.019 A 14.043 14.043 0 0 0 90.822 93.77 Q 94.257 90.547 95.701 84.869 A 68.416 68.416 0 0 0 96.071 83.374 Q 96.59 81.167 96.896 79.173 A 37.612 37.612 0 0 0 97.301 75.269 A 74.356 74.356 0 0 0 97.31 75.059 Q 97.402 73.018 97.374 71.108 A 54.638 54.638 0 0 0 97.201 67.419 Q 96.901 63.769 97.001 59.869 A 26.701 26.701 0 0 1 97.027 59.176 Q 97.215 55.547 98.401 51.169 A 46.639 46.639 0 0 1 99.688 46.975 A 57.282 57.282 0 0 1 102.401 40.669 Q 105.101 35.269 107.951 29.319 Q 110.801 23.369 112.301 16.869 A 31.11 31.11 0 0 0 112.855 14.262 Q 113.267 11.792 113.201 9.519 A 13.613 13.613 0 0 0 112.955 7.265 A 10.234 10.234 0 0 0 111.501 3.619 A 7.004 7.004 0 0 0 108.671 1.157 A 10.271 10.271 0 0 0 106.401 0.369 Q 101.101 -0.931 97.751 2.369 A 16.561 16.561 0 0 0 94.742 6.439 A 21.168 21.168 0 0 0 93.001 10.969 Q 91.301 17.569 90.651 24.269 Q 90.001 30.969 89.501 37.119 Q 89.001 43.269 87.701 48.369 A 51.552 51.552 0 0 1 87.352 49.689 Q 86.255 53.633 84.751 56.469 Q 83.001 59.769 81.101 62.769 A 70.437 70.437 0 0 0 79.624 65.212 A 87.204 87.204 0 0 0 77.351 69.419 A 30.61 30.61 0 0 0 76.508 71.231 Q 75.827 72.826 75.214 74.704 A 60.862 60.862 0 0 0 74.101 78.569 A 26.845 26.845 0 0 0 73.586 81.134 Q 73.243 83.44 73.393 85.507 A 14.85 14.85 0 0 0 74.301 89.719 A 9.485 9.485 0 0 0 77.787 94.285 Z M 0.553 63.892 A 13.648 13.648 0 0 0 0.001 67.869 Q 0.001 73.069 3.301 76.219 A 10.162 10.162 0 0 0 4.694 77.332 Q 7.757 79.369 12.501 79.369 A 20.341 20.341 0 0 0 13.066 79.361 Q 15.024 79.306 16.672 78.87 A 10.459 10.459 0 0 0 21.501 76.169 A 10.494 10.494 0 0 0 24.212 71.526 A 13.762 13.762 0 0 0 24.701 67.769 A 15.207 15.207 0 0 0 24.564 65.7 A 10.902 10.902 0 0 0 21.401 59.219 A 10.891 10.891 0 0 0 16.303 56.407 A 15.6 15.6 0 0 0 12.501 55.969 A 16.568 16.568 0 0 0 8.803 56.359 A 11.123 11.123 0 0 0 3.351 59.269 A 10.788 10.788 0 0 0 0.553 63.892 Z M 3.301 38.419 A 10.162 10.162 0 0 0 4.694 39.532 Q 7.757 41.569 12.501 41.569 A 20.341 20.341 0 0 0 13.066 41.561 Q 15.024 41.506 16.672 41.07 A 10.459 10.459 0 0 0 21.501 38.369 A 10.494 10.494 0 0 0 24.212 33.726 A 13.762 13.762 0 0 0 24.701 29.969 A 15.207 15.207 0 0 0 24.564 27.9 A 10.902 10.902 0 0 0 21.401 21.419 A 10.891 10.891 0 0 0 16.303 18.607 A 15.6 15.6 0 0 0 12.501 18.169 A 16.568 16.568 0 0 0 8.803 18.559 A 11.123 11.123 0 0 0 3.351 21.469 A 10.788 10.788 0 0 0 0.553 26.092 A 13.648 13.648 0 0 0 0.001 30.069 Q 0.001 35.269 3.301 38.419 Z"
            vector-effect="non-scaling-stroke"/>
    </g>
</svg>
